<svg viewBox="0 0 386.889 79.788" xmlns="http://www.w3.org/2000/svg"><g fill="#111"><path d="m.291 79.788h1.746v-4.073h6.691c1.527 0 2.182-.582 2.182-2.037v-2.327c0-1.455-.655-2.037-2.182-2.037h-8.437zm7.709-9.088c.8 0 1.163.218 1.163 1.091v1.455c0 .873-.363 1.091-1.163 1.091h-5.963v-3.637z" fill-rule="evenodd"/><path d="m37.166 79.788h10.183v-1.455h-8.437v-3.346h5.091v-1.382h-5.091v-2.909h8.291v-1.382h-10.037z"/><path d="m73.46 79.788h1.745v-4.073h3.055l4.291 4.073h2.619l-4.8-4.073h1.53c1.527 0 2.182-.582 2.182-2.037v-2.327c0-1.455-.655-2.037-2.182-2.037h-8.44zm7.71-9.088c.8 0 1.163.218 1.163 1.091v1.527c0 .873-.363 1.091-1.163 1.091h-5.965v-3.64h5.965z" fill-rule="evenodd"/><path d="m110.844 79.788h1.746v-4.219h4.655v-1.454h-4.655v-3.419h8.219v-1.382h-9.965z"/><path d="m145.538 71.787v5.528c0 1.964.582 2.473 2.473 2.473h7.2c1.891 0 2.4-.582 2.4-2.473v-5.528c0-1.891-.582-2.473-2.4-2.473h-7.2c-1.891 0-2.473.509-2.473 2.473m1.746-1.091h8.655v7.564h-8.655v-7.56z" fill-rule="evenodd"/><path d="m184.959 79.788h1.746v-4.073h3.054l4.219 4.073h2.622l-4.8-4.073h1.527c1.528 0 2.182-.582 2.182-2.037v-2.327c0-1.455-.654-2.037-2.182-2.037h-8.437v10.474zm7.71-9.092c.8 0 1.163.218 1.163 1.091v1.527c0 .873-.363 1.091-1.163 1.091h-5.964v-3.636h5.964z" fill-rule="evenodd"/><path d="m223.725 71.205a4.175 4.175 0 0 0 .728 1.309l4.146 5.674h.436l4-5.819a10.873 10.873 0 0 0 .655-1.164c-.073.8-.073 1.309-.073 1.528v7.055h1.6v-10.474h-1.6l-4.728 6.837-5.089-6.837h-1.454v10.474h1.454v-7.055a11.769 11.769 0 0 0 -.073-1.528"/><path d="m260.6 79.788h1.745l1.31-2.546h7.055l1.309 2.546h1.891l-5.819-10.474h-1.891zm3.782-3.928 2.837-5.382 2.836 5.382z" fill-rule="evenodd"/><path d="m299.3 79.788h1.6v-6.183a11.329 11.329 0 0 0 -.146-2.254 4.268 4.268 0 0 0 1.091 1.163l8.074 7.274h.945v-10.474h-1.6v5.746a16.335 16.335 0 0 0 .145 2.546 7.311 7.311 0 0 0 -1.163-1.31l-7.783-6.982h-1.091v10.474z"/><path d="m347.153 70.7v2.4l1.745-.291v-1.022c0-1.964-.582-2.473-2.4-2.473h-5.819c-1.891 0-2.472.582-2.472 2.473v5.528c0 1.891.581 2.473 2.472 2.473h5.821c1.891 0 2.4-.509 2.4-2.473v-1.237l-1.745-.363v2.618h-7.274v-7.633z"/><path d="m375.446 79.788h10.182v-1.455h-8.437v-3.346h5.092v-1.382h-5.092v-2.909h8.292v-1.382h-10.037z"/><path d="m199.142 61.095v-59.786h21.456v21.529l11.055-21.529h25.602l-18.619 30.111 19.274 29.675h-26.257l-11.055-21.747v21.747z"/><path d="m128.591 61.095-10.91-59.786h20.947l4.655 33.675 6.037-33.675h15.783l5.891 33.675 4.801-33.675h20.438l-11.419 59.786h-21.966l-5.818-31.929-6.328 31.929z"/><path d="m59.786 61.1 15.638-59.864h33.893l15.565 59.864h-22.765l-1.673-9.309h-16.144l-2.4 9.309zm32.293-48.372-5.6 24.293h11.637z"/><path d="m0 61.095v-59.786h21.893v21.747h12.8v-21.747h21.893v59.786h-21.893v-20.801h-12.582v20.801z"/></g><g fill="#c00"><path d="m375.082 38.766c3.709 1.31 6.328 4.219 8.437 6.765a14.326 14.326 0 0 1 3.346 10.109 5.348 5.348 0 0 1 -2.037 4.146c-.218.073-.436.291-.727.146l-.073-.146a3.754 3.754 0 0 0 -1.236-4 5.4 5.4 0 0 0 -3.564-.946c-2.546-1.382-5.673-1.454-8.583-1.891l-86.406-10.328-10.255-18.765 102.043 22.038a2.528 2.528 0 0 0 2.328 1.6c.291 0 .436-.218.582-.436a1.332 1.332 0 0 0 -.437-1.236c-1.018-.873-2.473-1.019-3.709-1.31l-102.044-23.056-11.637-21.456z"/><path d="m372.1 54.186c1.891.218 3.782.218 5.237 1.309s2.982 2.546 3.273 4.364c0 .145-.073.364-.219.364-.581.072-.581-.51-1.018-.8a11.441 11.441 0 0 0 -7.346-2.692l-78.627 2.769-7.855-14.474z"/><path d="m285.4 52.658a4.945 4.945 0 0 0 -3.564-1.454 4.777 4.777 0 0 0 -3.491 1.454 4.9 4.9 0 0 0 -1.455 3.492 5.064 5.064 0 0 0 1.455 3.563 4.94 4.94 0 0 0 3.564 1.455 5.064 5.064 0 0 0 3.563-1.455 4.939 4.939 0 0 0 1.455-3.563 5.155 5.155 0 0 0 -1.527-3.492zm-.51 6.619a3.9 3.9 0 0 1 -3.054 1.237 4.321 4.321 0 0 1 -3.055-7.346 4.006 4.006 0 0 1 3.055-1.237 3.853 3.853 0 0 1 3.054 1.237 4.281 4.281 0 0 1 1.237 3.054 4.411 4.411 0 0 1 -1.234 3.055z"/><path d="m283.948 54.84a1.365 1.365 0 0 0 -.873-1.382 3.753 3.753 0 0 0 -1.527-.218h-1.891v5.673h1.091v-2.182h.727a3.531 3.531 0 0 1 1.091.146 1.329 1.329 0 0 1 .509 1.236v.728h.873v-.073c0-.073-.073-.146-.073-.291v-.877a1.393 1.393 0 0 0 -.291-.873 1.351 1.351 0 0 0 -.945-.509 2.025 2.025 0 0 0 .8-.291 1.146 1.146 0 0 0 .509-1.087zm-1.382 1.091a2.837 2.837 0 0 1 -.945.146h-.873v-1.964h.8a2.361 2.361 0 0 1 1.164.218.94.94 0 0 1 .363.8.707.707 0 0 1 -.509.8z"/></g></svg>